<svg width="144" height="66" viewBox="0 0 144 66" fill="none" xmlns="http://www.w3.org/2000/svg"> <g clip-path="url(#clip0_1122_1723)"> <g clip-path="url(#clip1_1122_1723)"> <path d="M23.9478 32.8453C20.8226 32.8511 17.7139 33.2964 14.7134 34.168L13.6957 37.2801C20.2049 35.0557 27.1302 34.3113 33.965 35.1013C30.8739 33.508 27.4252 32.731 23.9478 32.8443" fill="white"></path> <path d="M23.1659 21.4832C23.1659 21.4832 19.6442 17.4341 9.54872 17.4341C6.34145 17.4715 3.14485 17.8101 0.0012207 18.4454L3.83607 21.6365C5.79215 21.0918 12.68 19.5348 23.1649 21.4813" fill="white"></path> <path d="M12.5218 28.8771L15.2607 31.134C16.4349 30.8226 21.8325 29.495 32.3996 30.9007C32.3996 30.9007 28.3299 27.9438 20.4254 27.9438C17.7683 28.0259 15.1235 28.3384 12.5208 28.878" fill="white"></path> <path d="M12.5997 40.8621L11.5038 44.4418C16.1214 41.9516 20.8947 39.6214 31.3043 37.671C30.2648 37.5572 29.2195 37.5054 28.1739 37.5158C22.7954 37.4394 17.4698 38.5837 12.5997 40.8621Z" fill="white"></path> <path d="M74.9748 34.9468H71.9189C44.9638 35.1801 21.8484 41.021 10.8001 47.9447L9.93799 51.2913C21.0656 43.8171 46.2965 37.3572 75.7586 37.3572C102.165 37.3572 125.358 42.5714 138.053 48.9542C127.631 41.6381 103.261 35.1782 74.9748 34.9448" fill="white"></path> <path d="M27.8587 26.2282C27.8587 26.2282 23.5541 22.96 15.6496 22.96C12.6836 22.9624 9.7327 23.3817 6.88397 24.2055L9.7833 26.6158C9.86158 26.6938 16.2788 24.5912 27.8616 26.2301" fill="white"></path> <path d="M52.3328 51.4452V43.4298H55.0717V42.4956H48.4196V43.4298H51.1585V51.4452H52.3328Z" fill="white"></path> <path d="M54.8434 47.5546C54.8574 47.0758 55.0495 46.6194 55.3823 46.2742C55.7152 45.929 56.1649 45.7198 56.6439 45.6872C56.8786 45.6904 57.11 45.7428 57.3232 45.8409C57.5364 45.939 57.7265 46.0806 57.8814 46.2566C58.0362 46.4326 58.1523 46.6391 58.2221 46.8627C58.292 47.0863 58.314 47.322 58.2868 47.5546H54.8434ZM59.3857 47.866C59.3857 46.6985 58.8377 44.8311 56.725 44.8311C54.8472 44.8311 53.673 46.3871 53.673 48.3336C53.6345 48.7666 53.6904 49.2028 53.8371 49.6122C53.9837 50.0216 54.2176 50.3945 54.5225 50.7051C54.8274 51.0157 55.1962 51.2567 55.6035 51.4115C56.0108 51.5663 56.4468 51.6312 56.8816 51.6018C57.6042 51.6111 58.3218 51.4801 58.9943 51.2162L58.7594 50.36C58.1837 50.5738 57.5732 50.6794 56.9589 50.6714C56.6584 50.6975 56.3558 50.6564 56.0732 50.5511C55.7906 50.4458 55.5351 50.2791 55.3253 50.0629C55.1154 49.8467 54.9565 49.5866 54.8601 49.3015C54.7637 49.0163 54.7323 48.7133 54.768 48.4145H59.3103C59.3886 48.3364 59.3886 48.1031 59.3886 47.8698" fill="white"></path> <path d="M65.4153 44.9863H64.1589L63.2195 46.3871C62.9847 46.6985 62.833 47.088 62.5933 47.4766H62.515C62.3238 47.1289 62.1148 46.7914 61.8887 46.4652L60.9494 45.0644H59.6186L61.8095 48.1774L59.5461 51.4457H60.8769L61.8163 49.9668C62.0511 49.5812 62.2859 49.2669 62.5208 48.8774C62.7556 49.263 62.9905 49.6554 63.2253 49.9668L64.1647 51.4457H65.4955L63.2263 48.0994L65.4153 44.9863Z" fill="white"></path> <path d="M69.5698 48.1773V49.2668C69.5812 49.4001 69.554 49.534 69.4915 49.6524C69.3862 49.98 69.176 50.264 68.8931 50.4608C68.6102 50.6576 68.2704 50.7563 67.9259 50.7418C67.7796 50.7522 67.6328 50.7312 67.4954 50.6802C67.358 50.6291 67.2331 50.5493 67.1292 50.4461C67.0253 50.3428 66.9449 50.2185 66.8932 50.0816C66.8416 49.9447 66.82 49.7983 66.8299 49.6524C66.8299 48.3297 68.3173 48.0964 69.5688 48.1735L69.5698 48.1773ZM65.6557 49.7295C65.6481 49.984 65.6942 50.2373 65.7909 50.4729C65.8877 50.7085 66.033 50.9212 66.2174 51.0972C66.4018 51.2733 66.6212 51.4087 66.8614 51.4948C67.1016 51.5809 67.3573 51.6157 67.6118 51.5969C67.9889 51.6083 68.3633 51.5294 68.7036 51.3669C69.0439 51.2044 69.3403 50.9629 69.5679 50.6627H69.6462L69.7244 51.4408H70.8204C70.7533 50.925 70.7271 50.4046 70.7421 49.8847V47.4745C70.7421 46.1518 70.2724 44.8281 68.3163 44.8281C67.5777 44.8322 66.8518 45.0194 66.2037 45.3728L66.4385 46.1509C66.9558 45.8336 67.5537 45.6717 68.1607 45.6842C68.3617 45.6588 68.5659 45.6794 68.7576 45.7447C68.9494 45.8099 69.1236 45.918 69.2671 46.0607C69.4106 46.2034 69.5195 46.3768 69.5855 46.5679C69.6516 46.759 69.673 46.9626 69.6481 47.1631V47.3184C67.0658 47.3184 65.6567 48.1745 65.6567 49.7286" fill="white"></path> <path d="M73.6461 50.6676C73.0917 50.6549 72.551 50.4937 72.0805 50.201L71.7673 51.0571C72.3234 51.3491 72.9396 51.5088 73.5678 51.5237C75.1334 51.5237 75.9936 50.7457 75.9936 49.5782C75.9936 48.644 75.4456 48.0993 74.2714 47.6326C73.4103 47.3213 73.015 47.088 73.015 46.5433C73.015 46.0766 73.4016 45.6872 74.1109 45.6872C74.5826 45.6846 75.0449 45.8185 75.4418 46.0728L75.7549 45.2167C75.2764 44.9523 74.7361 44.8192 74.1892 44.8311C73.92 44.7968 73.6466 44.8191 73.3865 44.8965C73.1264 44.9739 72.8855 45.1048 72.6791 45.2807C72.4728 45.4565 72.3056 45.6735 72.1884 45.9177C72.0711 46.1619 72.0064 46.4278 71.9983 46.6985C71.9983 47.4765 72.5463 48.0993 73.7205 48.4888C74.5816 48.8002 74.8947 49.1115 74.8947 49.6563C74.8947 50.2791 74.425 50.6676 73.6384 50.6676" fill="white"></path> <path d="M84.6114 48.9537C84.6114 47.631 83.8286 46.9291 82.3422 46.3073C81.0858 45.8407 80.5417 45.4512 80.5417 44.5951C80.5417 43.9723 81.0114 43.2724 82.2639 43.2724C82.8597 43.2707 83.4482 43.4025 83.9861 43.658L84.2992 42.7238C83.698 42.4038 83.0245 42.2432 82.3432 42.2572C80.621 42.2572 79.4438 43.2685 79.4438 44.6674C79.4438 45.913 80.3832 46.692 81.7913 47.2357C83.0477 47.7023 83.5135 48.1699 83.5135 49.026C83.5135 49.9602 82.809 50.582 81.6357 50.582C80.8971 50.5779 80.1712 50.3908 79.5231 50.0373L79.21 50.9715C79.9073 51.3435 80.6885 51.531 81.4792 51.5162C83.5135 51.5943 84.6095 50.3487 84.6095 48.9479" fill="white"></path> <path d="M88.7644 45.918V45.0619H87.1215V43.5078L85.9472 43.8934V45.0609H84.9296V45.918H85.9472V49.4205C85.8848 50.0069 86.0532 50.5946 86.4169 51.0595C86.5821 51.2203 86.7793 51.3449 86.9956 51.4253C87.212 51.5057 87.4428 51.54 87.6733 51.5261C88.0189 51.5318 88.3629 51.4793 88.691 51.3709L88.6127 50.5148C88.3857 50.5888 88.1459 50.6153 87.9081 50.5929C87.2819 50.5929 87.047 50.1262 87.047 49.3473V45.8448H88.7693L88.7644 45.918Z" fill="white"></path> <path d="M90.4132 49.5742C90.4132 48.3287 91.9006 48.0953 93.1521 48.0953V49.1848C93.1636 49.3181 93.1364 49.452 93.0739 49.5704C92.9685 49.898 92.7583 50.182 92.4754 50.3788C92.1926 50.5756 91.8528 50.6743 91.5082 50.6598C90.882 50.7379 90.4123 50.3484 90.4123 49.5704L90.4132 49.5742ZM93.1512 50.5817L93.3078 51.3597H94.4037C94.3366 50.8439 94.3105 50.3236 94.3254 49.8037V47.3935C94.3254 46.0708 93.8557 44.7471 91.8996 44.7471C91.1611 44.7512 90.4351 44.9384 89.787 45.2918L90.0218 46.0698C90.5146 45.7632 91.084 45.6014 91.6648 45.6032C91.8658 45.5777 92.0699 45.5984 92.2617 45.6636C92.4534 45.7289 92.6277 45.8369 92.7712 45.9796C92.9147 46.1223 93.0236 46.2958 93.0896 46.4868C93.1556 46.6779 93.177 46.8815 93.1521 47.0821V47.2373C90.6481 47.2373 89.239 48.0934 89.239 49.6475C89.2384 49.9001 89.2891 50.1502 89.3883 50.3826C89.4874 50.615 89.6329 50.8248 89.8158 50.9995C89.9987 51.1741 90.2153 51.3099 90.4524 51.3985C90.6895 51.4871 90.9422 51.5267 91.1951 51.5149C91.5755 51.5514 91.9586 51.4837 92.3033 51.3191C92.648 51.1544 92.9411 50.8992 93.1512 50.5808" fill="white"></path> <path d="M97.1483 43.4287L95.974 43.8143V44.9818H94.9573V45.8379H95.975V49.3405C95.9331 49.6427 95.9531 49.9503 96.0339 50.2446C96.1146 50.5389 96.2544 50.8138 96.4447 51.0527C96.6099 51.2136 96.8071 51.3382 97.0234 51.4185C97.2398 51.4989 97.4706 51.5332 97.7011 51.5193C98.0466 51.525 98.3907 51.4725 98.7187 51.3641L98.6405 50.508C98.4135 50.582 98.1737 50.6085 97.9359 50.5861C97.3097 50.5861 97.0748 50.1195 97.0748 49.3405V45.8389H98.7178V44.9828H97.0748V43.4287H97.1483Z" fill="white"></path> <path d="M102.089 45.6872C102.324 45.6904 102.555 45.7428 102.769 45.8409C102.982 45.939 103.172 46.0806 103.327 46.2566C103.482 46.4326 103.598 46.6391 103.668 46.8627C103.737 47.0863 103.759 47.322 103.732 47.5546H100.289C100.303 47.076 100.495 46.6197 100.827 46.2745C101.16 45.9294 101.61 45.72 102.088 45.6872H102.089ZM104.279 50.3562C103.704 50.5699 103.093 50.6755 102.479 50.6676C102.178 50.6936 101.876 50.6525 101.593 50.5473C101.311 50.442 101.055 50.2752 100.845 50.059C100.635 49.8429 100.476 49.5828 100.38 49.2976C100.284 49.0125 100.252 48.7095 100.288 48.4107H104.83C104.83 48.2555 104.908 48.0993 104.908 47.866C104.908 46.6985 104.36 44.8311 102.248 44.8311C100.37 44.8311 99.1958 46.3871 99.1958 48.3326C99.1572 48.7656 99.2132 49.2019 99.3598 49.6113C99.5065 50.0207 99.7403 50.3935 100.045 50.7041C100.35 51.0147 100.719 51.2557 101.126 51.4105C101.534 51.5653 101.97 51.6302 102.404 51.6008C103.127 51.6101 103.845 51.4791 104.517 51.2152L104.279 50.3562Z" fill="white"></path> <path d="M38.4621 53.5474H31.8101V54.5587H34.549V62.4969H35.7233V54.5587H38.4621V53.5474Z" fill="white"></path> <path d="M38.4685 58.6835C38.4825 58.2047 38.6747 57.7483 39.0075 57.4031C39.3403 57.0579 39.79 56.8486 40.269 56.816C40.5037 56.8193 40.7352 56.8717 40.9483 56.9698C41.1615 57.0679 41.3517 57.2095 41.5065 57.3855C41.6614 57.5615 41.7775 57.768 41.8473 57.9916C41.9171 58.2152 41.9392 58.4509 41.912 58.6835H38.4685ZM40.3463 55.8818C38.4685 55.8818 37.2943 57.4379 37.2943 59.3843C37.2557 59.8174 37.3117 60.2536 37.4584 60.663C37.605 61.0725 37.8388 61.4453 38.1438 61.7559C38.4487 62.0665 38.8175 62.3075 39.2248 62.4623C39.632 62.6171 40.0681 62.682 40.5029 62.6526C41.2255 62.6619 41.943 62.5309 42.6155 62.267L42.3807 61.4109C41.8049 61.6246 41.1945 61.7302 40.5802 61.7222C40.2797 61.7483 39.9771 61.7072 39.6945 61.6019C39.4119 61.4966 39.1564 61.3299 38.9466 61.1137C38.7367 60.8975 38.5778 60.6374 38.4814 60.3523C38.385 60.0671 38.3535 59.7641 38.3893 59.4653H42.9316C42.9316 59.3101 43.0098 59.1539 43.0098 58.9206C43.0098 57.7531 42.4619 55.8857 40.3492 55.8857" fill="white"></path> <path d="M47.0846 56.8931C47.5484 56.8735 48.0087 56.9812 48.4154 57.2045L48.6503 56.2703C48.1302 56.0539 47.5707 55.9479 47.0073 55.959C46.5483 55.9292 46.0882 55.9973 45.6576 56.1587C45.227 56.3201 44.8358 56.5712 44.51 56.8951C44.1843 57.2191 43.9314 57.6085 43.7683 58.0376C43.6051 58.4666 43.5355 58.9254 43.5639 59.3834C43.532 59.8149 43.5926 60.2483 43.7416 60.6547C43.8906 61.0611 44.1247 61.4312 44.4282 61.7404C44.7317 62.0495 45.0978 62.2907 45.502 62.4478C45.9062 62.6049 46.3393 62.6744 46.7725 62.6516C47.4188 62.6586 48.0592 62.5271 48.6503 62.266L48.4154 61.4099C47.9764 61.6216 47.4939 61.7282 47.0063 61.7213C46.6952 61.7232 46.387 61.661 46.101 61.5387C45.8151 61.4163 45.5576 61.2363 45.3445 61.0101C45.1315 60.7838 44.9676 60.5161 44.8631 60.2238C44.7586 59.9314 44.7157 59.6207 44.7371 59.3111C44.724 58.9968 44.7752 58.6832 44.8876 58.3894C45 58.0956 45.1713 57.8277 45.391 57.6021C45.6107 57.3765 45.8742 57.198 46.1654 57.0774C46.4566 56.9569 46.7694 56.8968 47.0846 56.9009" fill="white"></path> <path d="M52.9596 55.8821C52.549 55.8919 52.1466 55.9986 51.7853 56.1935C51.4256 56.3955 51.1279 56.6915 50.9242 57.0496V53.0005H49.751V62.4167H50.9252V58.5256C50.9068 58.3404 50.9336 58.1535 51.0035 57.9809C51.1113 57.6487 51.3198 57.358 51.6002 57.1489C51.8806 56.9398 52.2192 56.8226 52.5691 56.8134C53.6651 56.8134 54.0565 57.6695 54.0565 58.7589V62.4167H55.2307V58.6809C55.1524 56.4239 53.8216 55.8792 52.9615 55.8792" fill="white"></path> <path d="M59.9341 55.8823C59.5 55.8698 59.0712 55.9801 58.6974 56.2006C58.3235 56.421 58.0198 56.7425 57.8215 57.1279L57.7432 56.0385H56.7255C56.7925 56.6067 56.8186 57.1788 56.8038 57.7507V62.4197H57.9819V58.5287C57.9635 58.3435 57.9903 58.1566 58.0602 57.984C58.168 57.6517 58.3765 57.3611 58.6569 57.152C58.9373 56.9429 59.2759 56.8256 59.6258 56.8165C60.7218 56.8165 61.1132 57.6726 61.1132 58.6839V62.4197H62.2874V58.6839C62.2091 56.427 60.8 55.8823 59.9399 55.8823" fill="white"></path> <path d="M64.3227 53.5469C64.2283 53.5434 64.1341 53.5589 64.0459 53.5925C63.9576 53.6262 63.8771 53.6772 63.8091 53.7426C63.7411 53.808 63.687 53.8863 63.65 53.9731C63.613 54.0598 63.594 54.153 63.594 54.2473C63.594 54.3415 63.613 54.4348 63.65 54.5215C63.687 54.6082 63.7411 54.6866 63.8091 54.752C63.8771 54.8174 63.9576 54.8684 64.0459 54.902C64.1341 54.9356 64.2283 54.9512 64.3227 54.9477C64.4208 54.956 64.5197 54.9442 64.6131 54.9129C64.7066 54.8817 64.7926 54.8317 64.8659 54.7661C64.9393 54.7004 64.9984 54.6204 65.0396 54.5311C65.0807 54.4418 65.1032 54.3451 65.1055 54.2468C65.076 54.0578 64.982 53.8848 64.8394 53.7571C64.6967 53.6294 64.5141 53.5547 64.3227 53.5459" fill="white"></path> <path d="M64.8694 56.0391H63.6952V62.4984H64.8694V56.0391Z" fill="white"></path> <path d="M69.4137 56.8931C69.8775 56.8735 70.3378 56.9812 70.7445 57.2045L70.9794 56.2703C70.4593 56.0539 69.8998 55.9479 69.3364 55.959C68.8774 55.9292 68.4173 55.9973 67.9867 56.1587C67.5561 56.3201 67.1649 56.5712 66.8392 56.8951C66.5134 57.2191 66.2605 57.6085 66.0974 58.0376C65.9342 58.4666 65.8646 58.9254 65.893 59.3834C65.8611 59.8149 65.9217 60.2483 66.0707 60.6547C66.2197 61.0611 66.4538 61.4312 66.7573 61.7404C67.0608 62.0495 67.4269 62.2907 67.8311 62.4478C68.2353 62.6049 68.6684 62.6744 69.1016 62.6516C69.7479 62.6586 70.3883 62.5271 70.9794 62.266L70.7445 61.4099C70.3055 61.6216 69.823 61.7283 69.3354 61.7213C69.0243 61.7232 68.7161 61.661 68.4302 61.5387C68.1442 61.4163 67.8867 61.2363 67.6736 61.0101C67.4606 60.7838 67.2967 60.5161 67.1922 60.2238C67.0877 59.9314 67.0448 59.6207 67.0662 59.3111C67.0531 58.9968 67.1043 58.6832 67.2167 58.3894C67.3291 58.0956 67.5004 57.8277 67.7201 57.6021C67.9398 57.3765 68.2033 57.198 68.4945 57.0774C68.7857 56.9569 69.0985 56.8968 69.4137 56.9009" fill="white"></path> <path d="M75.4459 60.3176C75.4573 60.4509 75.4301 60.5848 75.3676 60.7032C75.2623 61.0308 75.052 61.3148 74.7692 61.5116C74.4863 61.7084 74.1465 61.8071 73.802 61.7926C73.6557 61.803 73.5089 61.782 73.3715 61.731C73.234 61.6799 73.1092 61.6001 73.0053 61.4969C72.9014 61.3936 72.8209 61.2693 72.7693 61.1324C72.7177 60.9955 72.6961 60.8491 72.706 60.7032C72.706 59.4576 74.1934 59.2243 75.4449 59.2243L75.4459 60.3176ZM76.5418 58.5273C76.5418 57.2045 76.0721 55.8809 74.116 55.8809C73.3775 55.885 72.6515 56.0722 72.0034 56.4256L72.2383 57.2036C72.7555 56.8863 73.3534 56.7243 73.9605 56.737C74.1614 56.7115 74.3656 56.7322 74.5573 56.7974C74.7491 56.8626 74.9234 56.9707 75.0668 57.1134C75.2103 57.2561 75.3192 57.4296 75.3853 57.6206C75.4513 57.8117 75.4727 58.0153 75.4478 58.2159V58.3711C72.9438 58.3711 71.5347 59.2272 71.5347 60.7813C71.534 61.0338 71.5848 61.2839 71.6839 61.5163C71.7831 61.7487 71.9285 61.9586 72.1115 62.1332C72.2944 62.3079 72.511 62.4436 72.7481 62.5322C72.9852 62.6208 73.2378 62.6605 73.4908 62.6487C73.8679 62.6601 74.2423 62.5812 74.5826 62.4187C74.9229 62.2562 75.2192 62.0147 75.4468 61.7145L75.5251 62.4925H76.6211C76.554 61.9767 76.5278 61.4564 76.5428 60.9365V58.5263L76.5418 58.5273Z" fill="white"></path> <path d="M79.2069 53.0806H78.0327V62.4968H79.2069V53.0806Z" fill="white"></path> <path d="M87.5123 54.3265C88.1358 54.2981 88.756 54.431 89.3128 54.7121L89.6259 53.7779C88.9588 53.4958 88.2374 53.3641 87.5133 53.3923C86.8878 53.3536 86.2613 53.4477 85.675 53.6684C85.0887 53.8891 84.556 54.2315 84.1122 54.6728C83.6684 55.1141 83.3234 55.6443 83.1002 56.2284C82.877 56.8125 82.7806 57.4373 82.8174 58.0613C82.7635 58.6621 82.8413 59.2673 83.0456 59.8351C83.2498 60.4028 83.5755 60.9194 84 61.3489C84.4245 61.7784 84.9376 62.1106 85.5038 62.3223C86.0699 62.5341 86.6755 62.6204 87.2785 62.5751C88.0871 62.609 88.8921 62.449 89.6259 62.1085L89.3911 61.1743C88.8006 61.4371 88.1599 61.5687 87.5133 61.56C85.3224 61.56 84.0699 60.1592 84.0699 57.9803C84.0106 57.505 84.0571 57.0224 84.206 56.567C84.3548 56.1116 84.6024 55.6945 84.9311 55.3453C85.2598 54.9962 85.6616 54.7235 86.1079 54.5467C86.5542 54.37 87.034 54.2935 87.5133 54.3226" fill="white"></path> <path d="M93.1537 61.7189C91.9794 61.7189 91.1976 60.6295 91.1976 59.2287C91.1976 57.9831 91.8238 56.7384 93.1537 56.7384C94.5627 56.7384 95.1097 58.1393 95.1097 59.2287C95.1097 60.7076 94.2486 61.7189 93.1537 61.7189ZM93.1537 55.8823C92.7099 55.8712 92.2688 55.9539 91.8593 56.1252C91.4499 56.2964 91.0815 56.5522 90.7784 56.8757C90.4753 57.1992 90.2443 57.5831 90.1006 58.0022C89.957 58.4212 89.904 58.8658 89.9451 59.3068C89.9112 59.7322 89.9678 60.1599 90.1112 60.5619C90.2545 60.964 90.4813 61.3313 90.7769 61.6399C91.0724 61.9484 91.4299 62.1912 91.826 62.3524C92.2221 62.5135 92.6479 62.5894 93.0754 62.575C93.5195 62.5874 93.9612 62.5055 94.3712 62.3347C94.7812 62.1639 95.1501 61.9081 95.4535 61.5843C95.7569 61.2605 95.9878 60.8761 96.131 60.4565C96.2742 60.0369 96.3263 59.5918 96.284 59.1506C96.3113 58.7267 96.2502 58.3017 96.1045 57.9025C95.9588 57.5033 95.7317 57.1386 95.4375 56.8315C95.1433 56.5243 94.7884 56.2814 94.3953 56.118C94.0022 55.9546 93.5794 55.8744 93.1537 55.8823Z" fill="white"></path> <path d="M98.5589 53.0806H97.3847V62.4968H98.5589V53.0806Z" fill="white"></path> <path d="M101.301 53.0806H100.126V62.4968H101.301V53.0806Z" fill="white"></path> <path d="M103.577 58.6835C103.591 58.2047 103.783 57.7483 104.116 57.4031C104.449 57.0579 104.899 56.8486 105.378 56.816C105.612 56.8193 105.844 56.8717 106.057 56.9698C106.27 57.0679 106.46 57.2095 106.615 57.3855C106.77 57.5615 106.886 57.768 106.956 57.9916C107.026 58.2152 107.048 58.4509 107.021 58.6835H103.577ZM105.455 55.8818C103.577 55.8818 102.403 57.4379 102.403 59.3843C102.364 59.8174 102.42 60.2536 102.567 60.663C102.714 61.0725 102.947 61.4453 103.252 61.7559C103.557 62.0665 103.926 62.3075 104.333 62.4623C104.741 62.6171 105.177 62.682 105.611 62.6526C106.334 62.6619 107.052 62.5309 107.724 62.267L107.489 61.4109C106.914 61.6246 106.303 61.7302 105.689 61.7222C105.388 61.7483 105.086 61.7072 104.803 61.6019C104.52 61.4966 104.265 61.3299 104.055 61.1137C103.845 60.8975 103.686 60.6374 103.59 60.3523C103.494 60.0671 103.462 59.7641 103.498 59.4653H108.04C108.04 59.3101 108.118 59.1539 108.118 58.9206C108.118 57.7531 107.57 55.8857 105.458 55.8857" fill="white"></path> <path d="M113.525 59.7729C113.537 59.9836 113.511 60.1948 113.446 60.3958C113.338 60.743 113.119 61.0452 112.822 61.2561C112.526 61.467 112.168 61.5749 111.803 61.5633C110.547 61.5633 109.926 60.552 109.926 59.2283C109.926 57.7494 110.708 56.8181 111.882 56.8181C112.255 56.8152 112.619 56.9359 112.916 57.1613C113.213 57.3867 113.427 57.704 113.525 58.0637C113.595 58.2362 113.621 58.4231 113.603 58.6084V59.7759L113.525 59.7729ZM113.679 57.0494C113.474 56.6987 113.175 56.4113 112.816 56.2191C112.457 56.0269 112.052 55.9372 111.645 55.96C110.158 55.96 108.746 57.2056 108.746 59.3844C108.712 59.77 108.756 60.1585 108.877 60.5264C108.998 60.8942 109.192 61.2339 109.448 61.5248C109.704 61.8158 110.017 62.0519 110.367 62.2191C110.717 62.3863 111.097 62.481 111.485 62.4975C111.892 62.5265 112.3 62.4395 112.66 62.2467C113.02 62.0538 113.318 61.763 113.519 61.408V62.1089C113.519 63.7479 112.658 64.3658 111.406 64.3658C110.751 64.3709 110.105 64.2103 109.528 63.8992L109.215 64.7553C109.867 65.0992 110.591 65.2858 111.328 65.3C112.183 65.3549 113.027 65.0756 113.679 64.5211C114.04 64.1245 114.31 63.6551 114.472 63.1449C114.634 62.6346 114.684 62.0955 114.619 61.5642V57.8284C114.598 57.2305 114.624 56.6319 114.697 56.0381H113.679V57.0494Z" fill="white"></path> <path d="M116.922 58.6835C116.936 58.2047 117.128 57.7483 117.461 57.4031C117.793 57.0579 118.243 56.8486 118.722 56.816C118.957 56.8193 119.188 56.8717 119.402 56.9698C119.615 57.0679 119.805 57.2095 119.96 57.3855C120.115 57.5615 120.231 57.768 120.3 57.9916C120.37 58.2152 120.392 58.4509 120.365 58.6835H116.922ZM118.8 55.8818C116.922 55.8818 115.747 57.4379 115.747 59.3843C115.709 59.8174 115.765 60.2536 115.912 60.663C116.058 61.0725 116.292 61.4453 116.597 61.7559C116.902 62.0665 117.271 62.3075 117.678 62.4623C118.085 62.6171 118.521 62.682 118.956 62.6526C119.679 62.6619 120.396 62.5309 121.069 62.267L120.834 61.4109C120.258 61.6246 119.648 61.7302 119.033 61.7222C118.733 61.7483 118.43 61.7072 118.148 61.6019C117.865 61.4966 117.61 61.3299 117.4 61.1137C117.19 60.8975 117.031 60.6374 116.935 60.3523C116.838 60.0671 116.807 59.7641 116.842 59.4653H121.385C121.385 59.3101 121.463 59.1539 121.463 58.9206C121.514 58.5423 121.482 58.1576 121.372 57.7922C121.261 57.4268 121.074 57.0891 120.822 56.8018C120.57 56.5145 120.26 56.2842 119.911 56.1262C119.563 55.9682 119.185 55.8862 118.802 55.8857" fill="white"></path> <path d="M50.322 18.4418H30.7563L25.2003 0.701172L20.426 15.8781C29.9735 19.9276 34.6695 28.5646 35.6871 30.6655L50.322 18.4418Z" fill="white"></path> <path d="M69.7113 10.9736H46.2325V15.098H69.7113V10.9736Z" fill="white"></path> <path d="M60.9483 18.2124H54.9225V32.1436H60.9483V18.2124Z" fill="white"></path> <path d="M78.2764 24.049H88.7632C89.2038 24.1085 89.6095 24.3203 89.9097 24.6474C90.2099 24.9746 90.3856 25.3964 90.4062 25.8394C90.4165 26.0864 90.3727 26.3326 90.2781 26.561C90.1835 26.7895 90.0402 26.9946 89.8582 27.1623C89.6515 27.3642 89.4066 27.5232 89.1379 27.6301C88.8692 27.737 88.5819 27.7897 88.2926 27.7851L70.9933 27.707V32.0651L88.2104 32.1431C90.2717 32.2575 92.2954 31.5587 93.8448 30.1975C94.4425 29.6562 94.9187 28.995 95.2423 28.2573C95.566 27.5195 95.7296 26.7219 95.7226 25.9166C95.7376 25.1101 95.5775 24.31 95.2534 23.5711C94.9293 22.8322 94.4487 22.1719 93.8448 21.6357C92.2954 20.2745 90.2717 19.5757 88.2104 19.69H78.0415C77.4967 19.6898 76.9697 19.4968 76.5542 19.1452C76.3238 18.9068 76.1616 18.6112 76.0845 18.2891H70.7632C70.8027 19.0294 70.989 19.7545 71.3114 20.4224C71.6337 21.0904 72.0856 21.6879 72.6411 22.1804C74.219 23.4847 76.2298 24.1511 78.2764 24.048" fill="white"></path> <path d="M94.9458 10.9754L78.2766 10.8974C76.2153 10.783 74.1916 11.4818 72.6423 12.8429C71.9552 13.4508 71.4419 14.2295 71.1549 15.0998H94.9458V10.9754Z" fill="white"></path> <path d="M120.493 10.9736H97.64V15.098H120.493V10.9736Z" fill="white"></path> <path d="M111.719 18.2124H105.693V32.1436H111.719V18.2124Z" fill="white"></path> <path d="M125.529 21.7924C125.558 20.47 126.058 19.201 126.938 18.2124H120.678C120.204 19.3738 119.965 20.6168 119.973 21.8705C119.974 23.2221 120.242 24.5602 120.762 25.8084C121.282 27.0565 122.043 28.1901 123.003 29.1443C123.962 30.0985 125.101 30.8546 126.354 31.3693C127.607 31.8839 128.949 32.1471 130.303 32.1436H143.999V27.6294H131.087C129.586 27.556 128.172 26.9085 127.137 25.8215C126.102 24.7344 125.527 23.2914 125.531 21.7924" fill="white"></path> <path d="M130.54 11.0527H130.305C128.697 11.0553 127.111 11.429 125.672 12.1445C124.233 12.86 122.979 13.8979 122.009 15.1771H144V11.0527H130.54Z" fill="white"></path> </g> </g> <defs> <clipPath id="clip0_1122_1723"> <rect width="144" height="64.5981" fill="white" transform="translate(0 0.701172)"></rect> </clipPath> <clipPath id="clip1_1122_1723"> <rect width="144" height="64.5981" fill="white" transform="translate(0 0.701172)"></rect> </clipPath> </defs> </svg>