<svg width="130" height="50" viewBox="0 0 144 57" fill="none" xmlns="http://www.w3.org/2000/svg"> <path d="M23.9406 35.8227C20.8164 35.8292 17.7086 36.3255 14.709 37.2969L13.6917 40.7654C20.1988 38.2863 27.1221 37.4566 33.9548 38.337C30.8647 36.5613 27.4171 35.6953 23.9406 35.8217" fill="white"></path> <path d="M23.1578 23.1613C23.1578 23.1613 19.6371 18.6484 9.54465 18.6484C6.33834 18.6902 3.14269 19.0676 0 19.7756L3.83371 23.3321C5.7892 22.7251 12.675 20.9897 23.1568 23.1591" fill="white"></path> <path d="M12.5165 31.399L15.2546 33.9144C16.4284 33.5673 21.8244 32.0877 32.3883 33.6543C32.3883 33.6543 28.3199 30.3589 20.4177 30.3589C17.7615 30.4503 15.1174 30.7987 12.5155 31.4001" fill="white"></path> <path d="M12.598 44.756L11.5024 48.7456C16.1187 45.9702 20.8905 43.3732 31.297 41.1995C30.2579 41.0727 29.2129 41.0149 28.1676 41.0265C22.7906 40.9414 17.4667 42.2167 12.598 44.756Z" fill="white"></path> <path d="M74.9537 38.1638H71.8988C44.9517 38.4238 21.8432 44.9331 10.7981 52.649L9.93634 56.3785C21.0606 48.0491 46.2841 40.85 75.7373 40.85C102.136 40.85 125.322 46.6609 138.013 53.774C127.595 45.6208 103.231 38.4216 74.9537 38.1616" fill="white"></path> <path d="M27.8494 28.4482C27.8494 28.4482 23.5462 24.8057 15.644 24.8057C12.6789 24.8084 9.72886 25.2757 6.88098 26.1939L9.77945 28.8801C9.85771 28.9672 16.273 26.6237 27.8523 28.4503" fill="white"></path> <path d="M50.3063 19.7706H30.7465L25.1921 0L20.4193 16.9135C29.9639 21.4264 34.6584 31.0517 35.6758 33.393L50.3063 19.7706Z" fill="white"></path> <path d="M69.6891 11.4482H46.2173V16.0449H69.6891V11.4482Z" fill="white"></path> <path d="M60.9312 19.5166H54.9072V35.0419H60.9312V19.5166Z" fill="white"></path> <path d="M78.2511 26.0201H88.7349C89.1753 26.0864 89.5809 26.3224 89.881 26.687C90.1811 27.0516 90.3567 27.5217 90.3773 28.0154C90.3876 28.2906 90.3439 28.565 90.2493 28.8196C90.1547 29.0741 90.0115 29.3027 89.8295 29.4896C89.6228 29.7146 89.3781 29.8918 89.1094 30.0109C88.8408 30.1301 88.5535 30.1888 88.2644 30.1837L70.9702 30.0967V34.9534L88.1822 35.0404C90.2429 35.1678 92.266 34.389 93.8149 32.8721C94.4124 32.2689 94.8885 31.5321 95.212 30.7099C95.5356 29.8877 95.6992 28.9988 95.6922 28.1014C95.7071 27.2027 95.5471 26.311 95.2231 25.4875C94.8991 24.664 94.4187 23.9282 93.8149 23.3306C92.266 21.8137 90.2429 21.0349 88.1822 21.1623H78.0164C77.4717 21.1621 76.9448 20.947 76.5294 20.5552C76.2991 20.2895 76.137 19.9601 76.0599 19.6011H70.7402C70.7797 20.4261 70.9659 21.2342 71.2882 21.9786C71.6104 22.723 72.0622 23.3889 72.6175 23.9377C74.1949 25.3912 76.2052 26.1339 78.2511 26.019" fill="white"></path> <path d="M94.9172 11.4496L78.253 11.3626C76.1923 11.2352 74.1692 12.014 72.6203 13.5309C71.9334 14.2084 71.4203 15.0764 71.1334 16.0463H94.9172V11.4496Z" fill="white"></path> <path d="M120.455 11.4482H97.609V16.0449H120.455V11.4482Z" fill="white"></path> <path d="M111.687 19.5166H105.663V35.0419H111.687V19.5166Z" fill="white"></path> <path d="M125.491 23.5062C125.52 22.0325 126.019 20.6183 126.9 19.5166H120.641C120.168 20.8108 119.928 22.1961 119.936 23.5932C119.937 25.0995 120.205 26.5908 120.725 27.9817C121.245 29.3727 122.006 30.636 122.965 31.6994C123.924 32.7628 125.063 33.6054 126.315 34.1789C127.567 34.7525 128.909 35.0457 130.264 35.0419H143.955V30.0111H131.047C129.547 29.9293 128.132 29.2078 127.098 27.9963C126.064 26.7849 125.489 25.1768 125.493 23.5062" fill="white"></path> <path d="M130.5 11.5361H130.266C128.658 11.539 127.073 11.9555 125.634 12.7529C124.195 13.5503 122.942 14.7071 121.972 16.1328H143.957V11.5361H130.5Z" fill="white"></path> </svg>